<svg width="28" height="21" viewBox="0 0 28 21" fill="none" xmlns="http://www.w3.org/2000/svg">
<path d="M26.265 4.07323L25.7811 4.19918L25.7812 4.1995L26.265 4.07323ZM24.0016 1.74934L23.8689 2.23142L23.8692 2.23152L24.0016 1.74934ZM3.99821 1.74934L4.13052 2.23152L4.13086 2.23142L3.99821 1.74934ZM1.73479 4.07323L2.21859 4.19946L2.21866 4.19918L1.73479 4.07323ZM1.73479 16.7268L2.21866 16.6008L2.21859 16.6006L1.73479 16.7268ZM3.99821 19.0508L4.13082 18.5687L4.13058 18.5687L3.99821 19.0508ZM24.0016 19.0508L23.8692 18.5687L23.8689 18.5687L24.0016 19.0508ZM26.265 16.7268L25.7812 16.6005L25.7811 16.6008L26.265 16.7268ZM26.7488 3.94728C26.4107 2.64814 25.4127 1.61809 24.1339 1.26717L23.8692 2.23152C24.7934 2.48512 25.5305 3.23631 25.7811 4.19918L26.7488 3.94728ZM24.1342 1.26726C23.582 1.1153 22.6613 1.01011 21.634 0.933157C20.5923 0.855123 19.3963 0.803348 18.2674 0.768911C17.1378 0.734449 16.0713 0.717232 15.2875 0.708626C14.8955 0.704321 14.5739 0.702168 14.3502 0.701091C14.2384 0.700552 14.151 0.700283 14.0915 0.700148C14.0617 0.70008 14.0389 0.700046 14.0235 0.700029C14.0158 0.700021 14.01 0.700017 14.006 0.700014C14.0041 0.700013 14.0026 0.700013 14.0015 0.700012C14.001 0.700012 14.0007 0.700012 14.0004 0.700012C14.0003 0.700012 14.0001 0.700012 14.0001 0.700012C14 0.700012 14 0.700012 14 1.20001C14 1.70001 14 1.70001 14 1.70001C14.0001 1.70001 14.0001 1.70001 14.0002 1.70001C14.0005 1.70001 14.0008 1.70001 14.0013 1.70001C14.0022 1.70001 14.0036 1.70001 14.0055 1.70001C14.0093 1.70002 14.0149 1.70002 14.0224 1.70003C14.0374 1.70005 14.0598 1.70008 14.0892 1.70015C14.1479 1.70028 14.2345 1.70055 14.3454 1.70108C14.5673 1.70215 14.8868 1.70429 15.2765 1.70857C16.0561 1.71713 17.1157 1.73424 18.2369 1.76845C19.359 1.80268 20.5385 1.8539 21.5593 1.93036C22.5944 2.00791 23.423 2.10872 23.8689 2.23142L24.1342 1.26726ZM14 1.20001C14 0.700012 13.9999 0.700012 13.9998 0.700012C13.9998 0.700012 13.9997 0.700012 13.9995 0.700012C13.9993 0.700012 13.9989 0.700012 13.9984 0.700012C13.9973 0.700013 13.9958 0.700013 13.9939 0.700014C13.9899 0.700017 13.9841 0.700021 13.9764 0.700029C13.961 0.700046 13.9382 0.70008 13.9084 0.700148C13.8489 0.700283 13.7615 0.700552 13.6497 0.701091C13.426 0.702168 13.1044 0.704321 12.7124 0.708626C11.9286 0.717232 10.8621 0.734449 9.73247 0.768911C8.60362 0.803348 7.40756 0.855123 6.36584 0.933157C5.3385 1.01011 4.41781 1.1153 3.86555 1.26726L4.13086 2.23142C4.57678 2.10872 5.4054 2.00791 6.44054 1.93036C7.46131 1.8539 8.64092 1.80268 9.76296 1.76845C10.8842 1.73424 11.9438 1.71713 12.7234 1.70857C13.1131 1.70429 13.4326 1.70215 13.6545 1.70108C13.7654 1.70055 13.852 1.70028 13.9107 1.70015C13.9401 1.70008 13.9625 1.70005 13.9775 1.70003C13.985 1.70002 13.9906 1.70002 13.9944 1.70001C13.9963 1.70001 13.9977 1.70001 13.9986 1.70001C13.9991 1.70001 13.9994 1.70001 13.9997 1.70001C13.9998 1.70001 13.9998 1.70001 13.9999 1.70001C13.9999 1.70001 14 1.70001 14 1.20001ZM3.86589 1.26717C2.58704 1.61809 1.58908 2.64814 1.25091 3.94728L2.21866 4.19918C2.4693 3.23631 3.20632 2.48512 4.13052 2.23152L3.86589 1.26717ZM1.25098 3.947C0.96908 5.02743 0.834208 6.65638 0.767441 7.98012C0.733688 8.64931 0.71683 9.25335 0.708401 9.69006C0.704185 9.90852 0.702073 10.0854 0.701014 10.2079C0.700485 10.2692 0.700219 10.3169 0.700086 10.3494C0.700019 10.3657 0.699986 10.3782 0.699968 10.3867C0.69996 10.3909 0.699956 10.3942 0.699953 10.3964C0.699952 10.3975 0.699952 10.3984 0.699951 10.399C0.699951 10.3993 0.699951 10.3995 0.699951 10.3997C0.699951 10.3998 0.699951 10.3999 0.699951 10.3999C0.699951 10.4 0.699951 10.4 1.19995 10.4C1.69995 10.4 1.69995 10.4 1.69995 10.4C1.69995 10.4 1.69995 10.4 1.69995 10.3999C1.69995 10.3998 1.69995 10.3997 1.69995 10.3995C1.69995 10.399 1.69995 10.3983 1.69995 10.3974C1.69995 10.3955 1.69996 10.3926 1.69997 10.3887C1.69998 10.3809 1.70001 10.3691 1.70008 10.3535C1.70021 10.3224 1.70046 10.2762 1.70098 10.2166C1.70201 10.0972 1.70407 9.92389 1.70821 9.70936C1.7165 9.28008 1.73307 8.68677 1.76617 8.03049C1.83311 6.70329 1.96566 5.16885 2.21859 4.19946L1.25098 3.947ZM1.19995 10.4C0.699951 10.4 0.699951 10.4001 0.699951 10.4001C0.699951 10.4002 0.699951 10.4002 0.699951 10.4003C0.699951 10.4005 0.699951 10.4007 0.699951 10.401C0.699952 10.4016 0.699952 10.4025 0.699953 10.4036C0.699956 10.4058 0.69996 10.4091 0.699968 10.4133C0.699986 10.4218 0.700019 10.4343 0.700086 10.4506C0.700219 10.4831 0.700485 10.5308 0.701014 10.5921C0.702073 10.7146 0.704185 10.8915 0.708401 11.1099C0.71683 11.5466 0.733688 12.1507 0.767441 12.8199C0.834208 14.1436 0.96908 15.7725 1.25098 16.853L2.21859 16.6006C1.96566 15.6311 1.83311 14.0967 1.76617 12.7695C1.73307 12.1132 1.7165 11.5199 1.70821 11.0906C1.70407 10.8761 1.70201 10.7028 1.70098 10.5835C1.70046 10.5238 1.70021 10.4776 1.70008 10.4465C1.70001 10.4309 1.69998 10.4192 1.69997 10.4113C1.69996 10.4074 1.69995 10.4045 1.69995 10.4026C1.69995 10.4017 1.69995 10.401 1.69995 10.4005C1.69995 10.4003 1.69995 10.4002 1.69995 10.4001C1.69995 10.4 1.69995 10.4 1.69995 10.4C1.69995 10.4 1.69995 10.4 1.19995 10.4ZM1.25091 16.8527C1.58908 18.1519 2.58704 19.1819 3.86583 19.533L4.13058 18.5687C3.20632 18.3149 2.4693 17.5637 2.21866 16.6008L1.25091 16.8527ZM3.86559 19.5329C4.41783 19.6848 5.33851 19.79 6.36585 19.8669C7.40757 19.9449 8.60363 19.9967 9.73247 20.0311C10.8621 20.0656 11.9286 20.0828 12.7124 20.0914C13.1044 20.0957 13.426 20.0979 13.6497 20.0989C13.7615 20.0995 13.8489 20.0997 13.9084 20.0999C13.9382 20.0999 13.961 20.1 13.9764 20.1C13.9841 20.1 13.9899 20.1 13.9939 20.1C13.9958 20.1 13.9973 20.1 13.9984 20.1C13.9989 20.1 13.9993 20.1 13.9995 20.1C13.9997 20.1 13.9998 20.1 13.9998 20.1C13.9999 20.1 14 20.1 14 19.6C14 19.1 13.9999 19.1 13.9999 19.1C13.9998 19.1 13.9998 19.1 13.9997 19.1C13.9994 19.1 13.9991 19.1 13.9986 19.1C13.9977 19.1 13.9963 19.1 13.9944 19.1C13.9906 19.1 13.985 19.1 13.9775 19.1C13.9625 19.1 13.9401 19.0999 13.9107 19.0999C13.852 19.0997 13.7654 19.0995 13.6545 19.0989C13.4326 19.0979 13.1131 19.0957 12.7234 19.0915C11.9438 19.0829 10.8842 19.0658 9.76296 19.0316C8.64091 18.9974 7.46131 18.9462 6.44053 18.8697C5.40539 18.7922 4.57676 18.6914 4.13082 18.5687L3.86559 19.5329ZM14 19.6C14 20.1 14 20.1 14.0001 20.1C14.0001 20.1 14.0003 20.1 14.0004 20.1C14.0007 20.1 14.001 20.1 14.0015 20.1C14.0026 20.1 14.0041 20.1 14.006 20.1C14.01 20.1 14.0158 20.1 14.0235 20.1C14.0389 20.1 14.0617 20.0999 14.0915 20.0999C14.151 20.0997 14.2384 20.0995 14.3502 20.0989C14.5739 20.0979 14.8955 20.0957 15.2875 20.0914C16.0713 20.0828 17.1378 20.0656 18.2674 20.0311C19.3962 19.9967 20.5923 19.9449 21.634 19.8669C22.6613 19.79 23.582 19.6848 24.1342 19.5329L23.8689 18.5687C23.423 18.6914 22.5944 18.7922 21.5593 18.8697C20.5386 18.9462 19.359 18.9974 18.2369 19.0316C17.1157 19.0658 16.0561 19.0829 15.2765 19.0915C14.8868 19.0957 14.5673 19.0979 14.3454 19.0989C14.2345 19.0995 14.1479 19.0997 14.0892 19.0999C14.0598 19.0999 14.0374 19.1 14.0224 19.1C14.0149 19.1 14.0093 19.1 14.0055 19.1C14.0036 19.1 14.0022 19.1 14.0013 19.1C14.0008 19.1 14.0005 19.1 14.0002 19.1C14.0001 19.1 14.0001 19.1 14 19.1C14 19.1 14 19.1 14 19.6ZM24.1339 19.533C25.4127 19.1819 26.4107 18.1519 26.7488 16.8527L25.7811 16.6008C25.5305 17.5637 24.7934 18.3149 23.8692 18.5687L24.1339 19.533ZM26.7488 16.8531C27.0307 15.7725 27.1657 14.1436 27.2324 12.8199C27.2662 12.1507 27.2831 11.5466 27.2915 11.1099C27.2957 10.8915 27.2978 10.7146 27.2989 10.5921C27.2994 10.5308 27.2997 10.4831 27.2998 10.4506C27.2999 10.4343 27.2999 10.4218 27.2999 10.4133C27.2999 10.4091 27.2999 10.4058 27.2999 10.4036C27.3 10.4025 27.3 10.4016 27.3 10.401C27.3 10.4007 27.3 10.4005 27.3 10.4003C27.3 10.4002 27.3 10.4002 27.3 10.4001C27.3 10.4001 27.3 10.4 26.8 10.4C26.3 10.4 26.3 10.4 26.3 10.4C26.3 10.4 26.3 10.4 26.3 10.4001C26.3 10.4002 26.3 10.4003 26.3 10.4005C26.3 10.401 26.3 10.4017 26.2999 10.4026C26.2999 10.4045 26.2999 10.4074 26.2999 10.4113C26.2999 10.4192 26.2999 10.4309 26.2998 10.4465C26.2997 10.4776 26.2994 10.5238 26.2989 10.5835C26.2979 10.7028 26.2958 10.8761 26.2917 11.0906C26.2834 11.5199 26.2668 12.1132 26.2337 12.7695C26.1668 14.0966 26.0342 15.6311 25.7812 16.6005L26.7488 16.8531ZM26.8 10.4C27.3 10.4 27.3 10.4 27.3 10.3999C27.3 10.3999 27.3 10.3998 27.3 10.3997C27.3 10.3995 27.3 10.3993 27.3 10.399C27.3 10.3984 27.3 10.3975 27.2999 10.3964C27.2999 10.3942 27.2999 10.3909 27.2999 10.3867C27.2999 10.3782 27.2999 10.3657 27.2998 10.3494C27.2997 10.3169 27.2994 10.2692 27.2989 10.2079C27.2978 10.0854 27.2957 9.90852 27.2915 9.69006C27.2831 9.25334 27.2662 8.6493 27.2324 7.98011C27.1657 6.65637 27.0307 5.02741 26.7488 3.94697L25.7812 4.1995C26.0342 5.16887 26.1668 6.7033 26.2337 8.0305C26.2668 8.68677 26.2834 9.28009 26.2917 9.70936C26.2958 9.92389 26.2979 10.0972 26.2989 10.2166C26.2994 10.2762 26.2997 10.3224 26.2998 10.3535C26.2999 10.3691 26.2999 10.3809 26.2999 10.3887C26.2999 10.3926 26.2999 10.3955 26.2999 10.3974C26.3 10.3983 26.3 10.399 26.3 10.3995C26.3 10.3997 26.3 10.3998 26.3 10.3999C26.3 10.4 26.3 10.4 26.3 10.4C26.3 10.4 26.3 10.4 26.8 10.4Z" fill="white"/>
<path d="M11.5999 14.8V6.79999L17.9999 10.8001L11.5999 14.8Z" stroke="#FDF8F8"/>
</svg>
