<svg width="128" height="56" fill="none" xmlns="http://www.w3.org/2000/svg"><path d="M80.721 32.907h-8.648L70.687 37h-5.909l8.384-23.172h6.536L88.082 37h-5.974l-1.387-4.093zM79.27 28.55l-2.872-8.483-2.839 8.483h5.71zm19.089 8.681c-1.695 0-3.213-.275-4.556-.825-1.342-.55-2.42-1.364-3.234-2.443-.793-1.078-1.21-2.376-1.255-3.895h6.008c.088.858.385 1.519.891 1.98.506.44 1.166.66 1.98.66.837 0 1.497-.186 1.981-.56.484-.396.726-.936.726-1.618 0-.572-.198-1.045-.594-1.419-.374-.374-.847-.682-1.42-.924-.55-.242-1.342-.517-2.376-.825-1.496-.463-2.718-.925-3.664-1.387-.946-.462-1.76-1.144-2.442-2.046-.683-.902-1.024-2.08-1.024-3.532 0-2.157.782-3.84 2.344-5.05 1.562-1.233 3.598-1.849 6.106-1.849 2.553 0 4.611.616 6.173 1.849 1.562 1.21 2.399 2.904 2.509 5.083h-6.107c-.044-.748-.319-1.331-.825-1.75-.506-.44-1.155-.66-1.947-.66-.683 0-1.233.187-1.65.561-.419.352-.628.87-.628 1.552 0 .748.352 1.331 1.056 1.75.704.417 1.805.868 3.301 1.352 1.496.507 2.707.99 3.631 1.453.946.462 1.76 1.133 2.443 2.013.682.88 1.023 2.014 1.023 3.4 0 1.32-.341 2.52-1.023 3.598-.661 1.078-1.629 1.937-2.905 2.575-1.277.638-2.784.957-4.522.957zm28.923-15.943c0 1.342-.308 2.575-.925 3.697-.616 1.1-1.562 1.992-2.838 2.674-1.277.682-2.861 1.023-4.753 1.023h-3.499V37h-5.645V13.828h9.144c1.848 0 3.41.32 4.687.957 1.276.639 2.233 1.519 2.871 2.641.639 1.122.958 2.41.958 3.862zm-8.946 2.905c1.079 0 1.882-.253 2.41-.76.528-.506.792-1.22.792-2.145 0-.924-.264-1.64-.792-2.146s-1.331-.759-2.41-.759h-3.069v5.81h3.069z" fill="#fff"/><g filter="url(#filter0_dd)"><rect x="6" y="4" width="46.6" height="46.6" rx="15" fill="#34DD45"/><path d="M39.447 21.524c-.396.397-.78.781-.792 1.165-.035.373.361.758.734 1.119.559.582 1.107 1.107 1.083 1.677-.023.571-.617 1.166-1.211 1.748l-4.812 4.823-1.654-1.654 4.951-4.94-1.118-1.118-1.654 1.642-4.37-4.368 4.474-4.462c.455-.455 1.212-.455 1.643 0l2.726 2.726c.454.43.454 1.188 0 1.642zM18.815 33.42l11.137-11.15 4.37 4.369-11.138 11.149h-4.37v-4.369z" fill="#fff"/></g><defs><filter id="filter0_dd" x=".175" y=".117" width="58.25" height="58.25" filterUnits="userSpaceOnUse" color-interpolation-filters="sRGB"><feFlood flood-opacity="0" result="BackgroundImageFix"/><feColorMatrix in="SourceAlpha" values="0 0 0 0 0 0 0 0 0 0 0 0 0 0 0 0 0 0 127 0"/><feOffset dy=".971"/><feGaussianBlur stdDeviation=".971"/><feColorMatrix values="0 0 0 0 0.0295189 0 0 0 0 0.137798 0 0 0 0 0.187773 0 0 0 0.24 0"/><feBlend mode="multiply" in2="BackgroundImageFix" result="effect1_dropShadow"/><feColorMatrix in="SourceAlpha" values="0 0 0 0 0 0 0 0 0 0 0 0 0 0 0 0 0 0 127 0"/><feOffset dy="1.942"/><feGaussianBlur stdDeviation="2.913"/><feColorMatrix values="0 0 0 0 0.0295189 0 0 0 0 0.137798 0 0 0 0 0.187773 0 0 0 0.16 0"/><feBlend mode="multiply" in2="effect1_dropShadow" result="effect2_dropShadow"/><feBlend in="SourceGraphic" in2="effect2_dropShadow" result="shape"/></filter></defs></svg>