<svg width="48" height="48" viewBox="0 0 48 48" fill="none" xmlns="http://www.w3.org/2000/svg">
<path d="M36.265 18.0732L35.7811 18.1992L35.7812 18.1995L36.265 18.0732ZM34.0016 15.7493L33.8689 16.2314L33.8692 16.2315L34.0016 15.7493ZM13.9982 15.7493L14.1305 16.2315L14.1309 16.2314L13.9982 15.7493ZM11.7348 18.0732L12.2186 18.1995L12.2187 18.1992L11.7348 18.0732ZM11.7348 30.7268L12.2187 30.6008L12.2186 30.6006L11.7348 30.7268ZM13.9982 33.0508L14.1308 32.5687L14.1306 32.5687L13.9982 33.0508ZM34.0016 33.0508L33.8692 32.5687L33.8689 32.5687L34.0016 33.0508ZM36.265 30.7268L35.7812 30.6005L35.7811 30.6008L36.265 30.7268ZM36.7488 17.9473C36.4107 16.6481 35.4127 15.6181 34.1339 15.2672L33.8692 16.2315C34.7934 16.4851 35.5305 17.2363 35.7811 18.1992L36.7488 17.9473ZM34.1342 15.2673C33.582 15.1153 32.6613 15.0101 31.634 14.9332C30.5923 14.8551 29.3963 14.8033 28.2674 14.7689C27.1378 14.7344 26.0713 14.7172 25.2875 14.7086C24.8955 14.7043 24.5739 14.7022 24.3502 14.7011C24.2384 14.7006 24.151 14.7003 24.0915 14.7001C24.0617 14.7001 24.0389 14.7 24.0235 14.7C24.0158 14.7 24.01 14.7 24.006 14.7C24.0041 14.7 24.0026 14.7 24.0015 14.7C24.001 14.7 24.0007 14.7 24.0004 14.7C24.0003 14.7 24.0001 14.7 24.0001 14.7C24 14.7 24 14.7 24 15.2C24 15.7 24 15.7 24 15.7C24.0001 15.7 24.0001 15.7 24.0002 15.7C24.0005 15.7 24.0008 15.7 24.0013 15.7C24.0022 15.7 24.0036 15.7 24.0055 15.7C24.0093 15.7 24.0149 15.7 24.0224 15.7C24.0374 15.7 24.0598 15.7001 24.0892 15.7001C24.1479 15.7003 24.2345 15.7005 24.3454 15.7011C24.5673 15.7021 24.8868 15.7043 25.2765 15.7086C26.0561 15.7171 27.1157 15.7342 28.2369 15.7684C29.359 15.8027 30.5385 15.8539 31.5593 15.9304C32.5944 16.0079 33.423 16.1087 33.8689 16.2314L34.1342 15.2673ZM24 15.2C24 14.7 23.9999 14.7 23.9998 14.7C23.9998 14.7 23.9997 14.7 23.9995 14.7C23.9993 14.7 23.9989 14.7 23.9984 14.7C23.9973 14.7 23.9958 14.7 23.9939 14.7C23.9899 14.7 23.9841 14.7 23.9764 14.7C23.961 14.7 23.9382 14.7001 23.9084 14.7001C23.8489 14.7003 23.7615 14.7006 23.6497 14.7011C23.426 14.7022 23.1044 14.7043 22.7124 14.7086C21.9286 14.7172 20.8621 14.7344 19.7325 14.7689C18.6036 14.8033 17.4076 14.8551 16.3658 14.9332C15.3385 15.0101 14.4178 15.1153 13.8656 15.2673L14.1309 16.2314C14.5768 16.1087 15.4054 16.0079 16.4405 15.9304C17.4613 15.8539 18.6409 15.8027 19.763 15.7684C20.8842 15.7342 21.9438 15.7171 22.7234 15.7086C23.1131 15.7043 23.4326 15.7021 23.6545 15.7011C23.7654 15.7005 23.852 15.7003 23.9107 15.7001C23.9401 15.7001 23.9625 15.7 23.9775 15.7C23.985 15.7 23.9906 15.7 23.9944 15.7C23.9963 15.7 23.9977 15.7 23.9986 15.7C23.9991 15.7 23.9994 15.7 23.9997 15.7C23.9998 15.7 23.9998 15.7 23.9999 15.7C23.9999 15.7 24 15.7 24 15.2ZM13.8659 15.2672C12.587 15.6181 11.5891 16.6481 11.2509 17.9473L12.2187 18.1992C12.4693 17.2363 13.2063 16.4851 14.1305 16.2315L13.8659 15.2672ZM11.251 17.947C10.9691 19.0274 10.8342 20.6564 10.7674 21.9801C10.7337 22.6493 10.7168 23.2533 10.7084 23.6901C10.7042 23.9085 10.7021 24.0854 10.701 24.2079C10.7005 24.2692 10.7002 24.3169 10.7001 24.3494C10.7 24.3657 10.7 24.3782 10.7 24.3867C10.7 24.3909 10.7 24.3942 10.7 24.3964C10.7 24.3975 10.7 24.3984 10.7 24.399C10.7 24.3993 10.7 24.3995 10.7 24.3997C10.7 24.3998 10.7 24.3999 10.7 24.3999C10.7 24.4 10.7 24.4 11.2 24.4C11.7 24.4 11.7 24.4 11.7 24.4C11.7 24.4 11.7 24.4 11.7 24.3999C11.7 24.3998 11.7 24.3997 11.7 24.3995C11.7 24.399 11.7 24.3983 11.7 24.3974C11.7 24.3955 11.7 24.3926 11.7 24.3887C11.7 24.3809 11.7 24.3691 11.7001 24.3535C11.7002 24.3224 11.7005 24.2762 11.701 24.2166C11.702 24.0972 11.7041 23.9239 11.7082 23.7094C11.7165 23.2801 11.7331 22.6868 11.7662 22.0305C11.8331 20.7033 11.9657 19.1689 12.2186 18.1995L11.251 17.947ZM11.2 24.4C10.7 24.4 10.7 24.4001 10.7 24.4001C10.7 24.4002 10.7 24.4002 10.7 24.4003C10.7 24.4005 10.7 24.4007 10.7 24.401C10.7 24.4016 10.7 24.4025 10.7 24.4036C10.7 24.4058 10.7 24.4091 10.7 24.4133C10.7 24.4218 10.7 24.4343 10.7001 24.4506C10.7002 24.4831 10.7005 24.5308 10.701 24.5921C10.7021 24.7146 10.7042 24.8915 10.7084 25.1099C10.7168 25.5466 10.7337 26.1507 10.7674 26.8199C10.8342 28.1436 10.9691 29.7725 11.251 30.853L12.2186 30.6006C11.9657 29.6311 11.8331 28.0967 11.7662 26.7695C11.7331 26.1132 11.7165 25.5199 11.7082 25.0906C11.7041 24.8761 11.702 24.7028 11.701 24.5835C11.7005 24.5238 11.7002 24.4776 11.7001 24.4465C11.7 24.4309 11.7 24.4192 11.7 24.4113C11.7 24.4074 11.7 24.4045 11.7 24.4026C11.7 24.4017 11.7 24.401 11.7 24.4005C11.7 24.4003 11.7 24.4002 11.7 24.4001C11.7 24.4 11.7 24.4 11.7 24.4C11.7 24.4 11.7 24.4 11.2 24.4ZM11.2509 30.8527C11.5891 32.1519 12.587 33.1819 13.8658 33.533L14.1306 32.5687C13.2063 32.3149 12.4693 31.5637 12.2187 30.6008L11.2509 30.8527ZM13.8656 33.5329C14.4178 33.6848 15.3385 33.79 16.3659 33.8669C17.4076 33.9449 18.6036 33.9967 19.7325 34.0311C20.8621 34.0656 21.9286 34.0828 22.7124 34.0914C23.1044 34.0957 23.426 34.0979 23.6497 34.0989C23.7615 34.0995 23.8489 34.0997 23.9084 34.0999C23.9382 34.0999 23.961 34.1 23.9764 34.1C23.9841 34.1 23.9899 34.1 23.9939 34.1C23.9958 34.1 23.9973 34.1 23.9984 34.1C23.9989 34.1 23.9993 34.1 23.9995 34.1C23.9997 34.1 23.9998 34.1 23.9998 34.1C23.9999 34.1 24 34.1 24 33.6C24 33.1 23.9999 33.1 23.9999 33.1C23.9998 33.1 23.9998 33.1 23.9997 33.1C23.9994 33.1 23.9991 33.1 23.9986 33.1C23.9977 33.1 23.9963 33.1 23.9944 33.1C23.9906 33.1 23.985 33.1 23.9775 33.1C23.9625 33.1 23.9401 33.0999 23.9107 33.0999C23.852 33.0997 23.7654 33.0995 23.6545 33.0989C23.4326 33.0979 23.1131 33.0957 22.7234 33.0915C21.9438 33.0829 20.8842 33.0658 19.763 33.0316C18.6409 32.9974 17.4613 32.9462 16.4405 32.8697C15.4054 32.7922 14.5768 32.6914 14.1308 32.5687L13.8656 33.5329ZM24 33.6C24 34.1 24 34.1 24.0001 34.1C24.0001 34.1 24.0003 34.1 24.0004 34.1C24.0007 34.1 24.001 34.1 24.0015 34.1C24.0026 34.1 24.0041 34.1 24.006 34.1C24.01 34.1 24.0158 34.1 24.0235 34.1C24.0389 34.1 24.0617 34.0999 24.0915 34.0999C24.151 34.0997 24.2384 34.0995 24.3502 34.0989C24.5739 34.0979 24.8955 34.0957 25.2875 34.0914C26.0713 34.0828 27.1378 34.0656 28.2674 34.0311C29.3962 33.9967 30.5923 33.9449 31.634 33.8669C32.6613 33.79 33.582 33.6848 34.1342 33.5329L33.8689 32.5687C33.423 32.6914 32.5944 32.7922 31.5593 32.8697C30.5386 32.9462 29.359 32.9974 28.2369 33.0316C27.1157 33.0658 26.0561 33.0829 25.2765 33.0915C24.8868 33.0957 24.5673 33.0979 24.3454 33.0989C24.2345 33.0995 24.1479 33.0997 24.0892 33.0999C24.0598 33.0999 24.0374 33.1 24.0224 33.1C24.0149 33.1 24.0093 33.1 24.0055 33.1C24.0036 33.1 24.0022 33.1 24.0013 33.1C24.0008 33.1 24.0005 33.1 24.0002 33.1C24.0001 33.1 24.0001 33.1 24 33.1C24 33.1 24 33.1 24 33.6ZM34.1339 33.533C35.4127 33.1819 36.4107 32.1519 36.7488 30.8527L35.7811 30.6008C35.5305 31.5637 34.7934 32.3149 33.8692 32.5687L34.1339 33.533ZM36.7488 30.8531C37.0307 29.7725 37.1657 28.1436 37.2324 26.8199C37.2662 26.1507 37.2831 25.5466 37.2915 25.1099C37.2957 24.8915 37.2978 24.7146 37.2989 24.5921C37.2994 24.5308 37.2997 24.4831 37.2998 24.4506C37.2999 24.4343 37.2999 24.4218 37.2999 24.4133C37.2999 24.4091 37.2999 24.4058 37.2999 24.4036C37.3 24.4025 37.3 24.4016 37.3 24.401C37.3 24.4007 37.3 24.4005 37.3 24.4003C37.3 24.4002 37.3 24.4002 37.3 24.4001C37.3 24.4001 37.3 24.4 36.8 24.4C36.3 24.4 36.3 24.4 36.3 24.4C36.3 24.4 36.3 24.4 36.3 24.4001C36.3 24.4002 36.3 24.4003 36.3 24.4005C36.3 24.401 36.3 24.4017 36.2999 24.4026C36.2999 24.4045 36.2999 24.4074 36.2999 24.4113C36.2999 24.4192 36.2999 24.4309 36.2998 24.4465C36.2997 24.4776 36.2994 24.5238 36.2989 24.5835C36.2979 24.7028 36.2958 24.8761 36.2917 25.0906C36.2834 25.5199 36.2668 26.1132 36.2337 26.7695C36.1668 28.0966 36.0342 29.6311 35.7812 30.6005L36.7488 30.8531ZM36.8 24.4C37.3 24.4 37.3 24.4 37.3 24.3999C37.3 24.3999 37.3 24.3998 37.3 24.3997C37.3 24.3995 37.3 24.3993 37.3 24.399C37.3 24.3984 37.3 24.3975 37.2999 24.3964C37.2999 24.3942 37.2999 24.3909 37.2999 24.3867C37.2999 24.3782 37.2999 24.3657 37.2998 24.3494C37.2997 24.3169 37.2994 24.2692 37.2989 24.2079C37.2978 24.0854 37.2957 23.9085 37.2915 23.6901C37.2831 23.2533 37.2662 22.6493 37.2324 21.9801C37.1657 20.6564 37.0307 19.0274 36.7488 17.947L35.7812 18.1995C36.0342 19.1689 36.1668 20.7033 36.2337 22.0305C36.2668 22.6868 36.2834 23.2801 36.2917 23.7094C36.2958 23.9239 36.2979 24.0972 36.2989 24.2166C36.2994 24.2762 36.2997 24.3224 36.2998 24.3535C36.2999 24.3691 36.2999 24.3809 36.2999 24.3887C36.2999 24.3926 36.2999 24.3955 36.2999 24.3974C36.3 24.3983 36.3 24.399 36.3 24.3995C36.3 24.3997 36.3 24.3998 36.3 24.3999C36.3 24.4 36.3 24.4 36.3 24.4C36.3 24.4 36.3 24.4 36.8 24.4Z" fill="white"/>
<path d="M21.5999 28.8V20.8L27.9999 24.8001L21.5999 28.8Z" stroke="#FDF8F8"/>
</svg>
