<svg width="128" height="56" viewBox="0 0 128 56" fill="none" xmlns="http://www.w3.org/2000/svg">
<path d="M80.7212 32.907H72.073L70.6866 37H64.7781L73.1622 13.8282H79.6979L88.082 37H82.1075L80.7212 32.907ZM79.2688 28.5499L76.3971 20.0667L73.5583 28.5499H79.2688ZM98.3577 37.2311C96.6632 37.2311 95.1449 36.956 93.8025 36.4059C92.4602 35.8557 91.3819 35.0415 90.5677 33.9632C89.7755 32.885 89.3574 31.5866 89.3134 30.0683H95.3209C95.4089 30.9265 95.706 31.5866 96.2121 32.0488C96.7183 32.4889 97.3784 32.7089 98.1926 32.7089C99.0288 32.7089 99.689 32.5219 100.173 32.1478C100.657 31.7517 100.899 31.2125 100.899 30.5304C100.899 29.9582 100.701 29.4851 100.305 29.111C99.9311 28.7369 99.4579 28.4288 98.8858 28.1868C98.3357 27.9447 97.5435 27.6696 96.5092 27.3616C95.0128 26.8994 93.7915 26.4373 92.8453 25.9752C91.899 25.5131 91.0848 24.8309 90.4027 23.9287C89.7205 23.0265 89.3794 21.8492 89.3794 20.3968C89.3794 18.2403 90.1606 16.5568 91.723 15.3465C93.2854 14.1142 95.3209 13.4981 97.8295 13.4981C100.382 13.4981 102.44 14.1142 104.002 15.3465C105.564 16.5568 106.401 18.2513 106.511 20.4298H100.404C100.36 19.6816 100.085 19.0985 99.579 18.6804C99.0728 18.2403 98.4237 18.0202 97.6315 18.0202C96.9493 18.0202 96.3992 18.2073 95.9811 18.5814C95.563 18.9334 95.3539 19.4506 95.3539 20.1327C95.3539 20.8809 95.706 21.4641 96.4102 21.8822C97.1144 22.3003 98.2146 22.7514 99.711 23.2355C101.207 23.7417 102.418 24.2258 103.342 24.6879C104.288 25.15 105.102 25.8212 105.785 26.7014C106.467 27.5816 106.808 28.7149 106.808 30.1013C106.808 31.4216 106.467 32.6209 105.785 33.6992C105.124 34.7774 104.156 35.6357 102.88 36.2738C101.603 36.912 100.096 37.2311 98.3577 37.2311ZM127.281 21.288C127.281 22.6304 126.973 23.8627 126.356 24.985C125.74 26.0852 124.794 26.9765 123.518 27.6586C122.241 28.3408 120.657 28.6819 118.765 28.6819H115.266V37H109.621V13.8282H118.765C120.613 13.8282 122.175 14.1472 123.452 14.7854C124.728 15.4236 125.685 16.3038 126.323 17.4261C126.962 18.5483 127.281 19.8357 127.281 21.288ZM118.335 24.1928C119.414 24.1928 120.217 23.9397 120.745 23.4336C121.273 22.9274 121.537 22.2123 121.537 21.288C121.537 20.3638 121.273 19.6486 120.745 19.1425C120.217 18.6364 119.414 18.3833 118.335 18.3833H115.266V24.1928H118.335Z" fill="white"/>
<g filter="url(#filter0_dd)">
<rect x="6" y="3.99988" width="46.6" height="46.6" rx="15" fill="#34DD45"/>
<path d="M39.4471 21.5245C39.051 21.9206 38.6665 22.305 38.6549 22.6895C38.6199 23.0623 39.016 23.4467 39.3888 23.8079C39.948 24.3904 40.4956 24.9146 40.4723 25.4855C40.449 26.0563 39.8548 26.6505 39.2607 27.233L34.4492 32.0561L32.7949 30.4018L37.7462 25.4622L36.6278 24.3438L34.9735 25.9864L30.6047 21.6177L35.0783 17.1557C35.5327 16.7014 36.2899 16.7014 36.721 17.1557L39.4471 19.8818C39.9014 20.3129 39.9014 21.0701 39.4471 21.5245ZM18.8149 33.4191L29.9523 22.2701L34.3211 26.6388L23.1837 37.7879H18.8149V33.4191Z" fill="white"/>
</g>
<defs>
<filter id="filter0_dd" x="0.175" y="0.116545" width="58.25" height="58.25" filterUnits="userSpaceOnUse" color-interpolation-filters="sRGB">
<feFlood flood-opacity="0" result="BackgroundImageFix"/>
<feColorMatrix in="SourceAlpha" type="matrix" values="0 0 0 0 0 0 0 0 0 0 0 0 0 0 0 0 0 0 127 0"/>
<feOffset dy="0.970833"/>
<feGaussianBlur stdDeviation="0.970833"/>
<feColorMatrix type="matrix" values="0 0 0 0 0.0295189 0 0 0 0 0.137798 0 0 0 0 0.187773 0 0 0 0.24 0"/>
<feBlend mode="multiply" in2="BackgroundImageFix" result="effect1_dropShadow"/>
<feColorMatrix in="SourceAlpha" type="matrix" values="0 0 0 0 0 0 0 0 0 0 0 0 0 0 0 0 0 0 127 0"/>
<feOffset dy="1.94167"/>
<feGaussianBlur stdDeviation="2.9125"/>
<feColorMatrix type="matrix" values="0 0 0 0 0.0295189 0 0 0 0 0.137798 0 0 0 0 0.187773 0 0 0 0.16 0"/>
<feBlend mode="multiply" in2="effect1_dropShadow" result="effect2_dropShadow"/>
<feBlend mode="normal" in="SourceGraphic" in2="effect2_dropShadow" result="shape"/>
</filter>
</defs>
</svg>
